<svg width="27" height="22" viewBox="0 0 27 22" fill="none" xmlns="http://www.w3.org/2000/svg">
<path d="M24.2261 5.48277C24.2439 5.72397 24.2439 5.96379 24.2439 6.20361C24.2439 13.5429 18.6755 22 8.49898 22C5.36373 22 2.45105 21.089 0 19.5067C0.445146 19.5577 0.873804 19.5756 1.33681 19.5756C3.82769 19.5817 6.24804 18.7461 8.20771 17.2036C7.05284 17.1826 5.93332 16.8004 5.00547 16.1103C4.07762 15.4201 3.38776 14.4566 3.03221 13.3541C3.37431 13.4051 3.71779 13.4395 4.07775 13.4395C4.57373 13.4395 5.07246 13.3706 5.53547 13.2507C4.28214 12.9969 3.15514 12.3154 2.34611 11.3221C1.53708 10.3288 1.09596 9.08509 1.09775 7.80241V7.73349C1.83554 8.1456 2.69148 8.40333 3.59826 8.43779C2.83861 7.93139 2.21573 7.24424 1.78517 6.43763C1.35462 5.63102 1.12978 4.73003 1.13072 3.81506C1.13072 2.78411 1.40413 1.83862 1.88363 1.01441C3.27421 2.73039 5.00858 4.13422 6.97441 5.13498C8.94024 6.13574 11.0937 6.71111 13.2953 6.82383C13.2101 6.41035 13.1579 5.98171 13.1579 5.55169C13.1575 4.82253 13.3004 4.10044 13.5784 3.42672C13.8564 2.75299 14.264 2.14084 14.778 1.62524C15.2919 1.10965 15.9022 0.70073 16.5738 0.42186C17.2453 0.14299 17.9651 -0.00036163 18.692 6.85089e-07C20.2857 6.85089e-07 21.7242 0.669841 22.7354 1.75316C23.9743 1.51282 25.1625 1.0591 26.2471 0.412104C25.8341 1.69502 24.969 2.78288 23.8139 3.47187C24.9127 3.34614 25.9867 3.05626 27 2.61183C26.2432 3.71872 25.3053 4.68936 24.2261 5.48277Z" fill="white"/>
</svg>
